<?xml version="1.0" standalone="no"?>
<!DOCTYPE svg PUBLIC "-//W3C//DTD SVG 20010904//EN"
 "http://www.w3.org/TR/2001/REC-SVG-20010904/DTD/svg10.dtd">
<svg version="1.0" xmlns="http://www.w3.org/2000/svg"
 width="512.000000pt" height="512.000000pt" viewBox="0 0 512.000000 512.000000"
 preserveAspectRatio="xMidYMid meet">
<metadata>
Created by potrace 1.14, written by Peter Selinger 2001-2017
</metadata>
<g transform="translate(0.000000,512.000000) scale(0.100000,-0.100000)"
fill="#000000" stroke="none">
<path d="M2369 5116 c-2 -2 -34 -6 -70 -10 -948 -89 -1796 -741 -2134 -1642
-37 -97 -102 -315 -109 -364 -3 -14 -9 -50 -15 -80 -29 -156 -36 -244 -35
-470 0 -113 4 -234 8 -270 5 -36 10 -72 11 -80 8 -66 32 -184 57 -278 144
-555 456 -1030 909 -1384 333 -259 758 -445 1154 -504 22 -3 51 -8 65 -10 114
-20 472 -26 610 -11 116 13 118 13 235 36 538 103 1054 399 1420 813 131 148
254 323 329 468 22 41 47 89 56 105 81 147 193 495 225 696 24 150 30 241 30
439 -1 208 -12 343 -40 470 -3 14 -10 46 -15 71 -23 115 -94 335 -148 461
-199 456 -507 827 -924 1112 -53 36 -100 66 -104 66 -4 0 -15 6 -23 14 -20 18
-257 137 -331 166 -142 57 -380 128 -490 146 -14 2 -38 6 -55 9 -16 3 -50 8
-75 11 -25 3 -56 8 -70 11 -28 5 -466 14 -471 9z m432 -1296 c218 -38 381
-119 515 -255 108 -111 172 -253 189 -417 4 -43 2 -58 -7 -59 -15 0 -418 0
-465 0 -29 1 -33 4 -33 27 0 39 -45 128 -85 168 -92 93 -282 134 -465 101
-105 -18 -203 -83 -242 -159 -28 -54 -30 -156 -5 -208 46 -96 157 -152 435
-220 250 -60 369 -97 469 -143 281 -130 433 -345 434 -615 1 -303 -144 -527
-426 -655 -63 -29 -129 -52 -172 -61 -6 -1 -33 -7 -60 -12 -152 -33 -504 -34
-588 -2 -13 5 -25 7 -27 4 -3 -2 -45 7 -94 21 -351 102 -561 346 -590 685 l-6
80 254 0 255 0 6 -48 c19 -163 162 -288 360 -316 205 -30 377 9 479 108 56 54
73 98 73 188 0 69 -3 80 -30 119 -64 90 -155 130 -485 214 -124 31 -261 68
-305 83 -72 23 -262 113 -275 130 -3 4 -21 19 -41 34 -143 107 -217 254 -223
444 -3 87 15 219 35 255 7 13 11 25 10 27 -6 7 47 103 85 152 115 151 293 261
504 312 142 33 385 42 521 18z"/>
</g>
</svg>
